<mxfile host="app.diagrams.net" modified="2023-07-26T20:14:13.320Z" agent="Mozilla/5.0 (X11; Linux x86_64) AppleWebKit/537.36 (KHTML, like Gecko) Chrome/115.0.0.0 Safari/537.36" version="21.6.5" etag="Hez_Cggt8w4Whndjrh-T" type="github">
  <diagram name="PÃ¡gina-1" id="2Ey6jCWBd2xGQ7CGn-9a">
    <mxGraphModel>
      <root>
        <mxCell id="0" />
        <mxCell id="1" parent="0" />
      </root>
    </mxGraphModel>
  </diagram>
</mxfile>
